<?xml version="1.0" encoding="UTF-8"?>
<svg id="Layer_1" data-name="Layer 1" xmlns="http://www.w3.org/2000/svg" version="1.1" viewBox="0 0 723.9 531.5">
  <defs>
    <style>
      .cls-1 {
        font-size: 50.5px;
      }

      .cls-1, .cls-2 {
        fill: #000;
        font-family: KohinoorTelugu-Bold, 'Kohinoor Telugu';
        font-weight: 700;
      }

      .cls-3 {
        fill: #231f20;
        font-family: KohinoorTelugu-Semibold, 'Kohinoor Telugu';
        font-size: 200px;
        font-weight: 600;
      }

      .cls-3, .cls-4 {
        isolation: isolate;
      }

      .cls-5 {
        fill: #fff;
        stroke: #000;
        stroke-miterlimit: 10;
        stroke-width: 15px;
      }

      .cls-2 {
        font-size: 52.8px;
      }
    </style>
  </defs>
  <g class="cls-4">
    <text class="cls-3" transform="translate(-1053.4 2097.4)"><tspan x="0" y="0">BAGOM EN GUITARIST</tspan></text>
  </g>
  <path class="cls-5" d="M-580.2,73.2c10.8-4.5,39.5-15.9,77.5-23.4,14.4-2.8,30-4.8,61.4-8.8,13.1-1.7,22.6-2.8,34.5-3.5,16.8-1,29.9-.9,37.8-.8,27.7.4,57.1,0,95.3,7,20.4,3.7,52.2,9.7,90.3,27,19.7,9,42.7,19.4,66.9,40.8,12.4,11,38.2,34.4,53.5,72.5,20.9,52.1,17,118.8-17,165.7-19,26.2-45.1,43.1-65.2,56.1-5.2,3.4-25.2,16-54,27.9-116.7,48.3-225.4,32.4-225.4,32.4-.3,0-.6,0-1.1-.2-40.6-6-105.5-24.2-135.9-41.2-3.1-1.7-11.8-6.7-21.2-4.4-5.7,1.4-9.3,5-10.7,6.3-15.9,15.1-49.5,29.3-69.9,37.9-18.2,7.7-46.1,16.9-48.4,12.5-2.3-4.5,25.2-19.3,57.3-56.2,20-23,23.3-33.2,21.3-41.7-2-8.5-8.2-10-23.7-26,0,0-14-14.4-26.6-33.3-5.4-8.1-16.5-25-23.1-48-4-13.9-9.5-40.9-2.4-72.4,10.1-45.1,39.8-72,54.3-84.7,22.9-20.1,44.5-29.1,74.6-41.7Z"/>
  <text class="cls-2" transform="translate(-605.4 160)"><tspan x="0" y="0">Jeg hørte en band </tspan><tspan x="22" y="74.6">spille og tænkte </tspan><tspan x="72.3" y="149.2">“det kan jeg </tspan><tspan x="74.2" y="223.9">gøre bedre!”</tspan></text>
  <text/>
  <path class="cls-5" d="M561.2,73.2c-10.8-4.5-39.5-15.9-77.5-23.4-14.4-2.8-30-4.8-61.4-8.8-13.1-1.7-22.6-2.8-34.5-3.5-16.8-1-29.9-.9-37.8-.8-27.7.4-57.1,0-95.3,7-20.4,3.7-52.2,9.7-90.3,27-19.7,9-42.7,19.4-66.9,40.8-12.4,11-38.2,34.4-53.5,72.5-20.9,52.1-17,118.8,17,165.7,19,26.2,45.1,43.1,65.2,56.1,5.2,3.4,25.2,16,54,27.9,116.7,48.3,225.4,32.4,225.4,32.4.3,0,.6,0,1.1-.2,40.6-6,105.5-24.2,135.9-41.2,3.1-1.7,11.8-6.7,21.2-4.4,5.7,1.4,9.3,5,10.7,6.3,15.9,15.1,49.5,29.3,69.9,37.9,18.2,7.7,46.1,16.9,48.4,12.5,2.3-4.5-25.2-19.3-57.3-56.2-20-23-23.3-33.2-21.3-41.7,2-8.5,8.2-10,23.7-26,0,0,14-14.4,26.6-33.3,5.4-8.1,16.5-25,23.1-48,4-13.9,9.5-40.9,2.4-72.4-10.1-45.1-39.8-72-54.3-84.7-22.9-20.1-44.5-29.1-74.6-41.7Z"/>
  <text class="cls-1" transform="translate(140.5 160)"><tspan x="0" y="0">Følelsen af at give </tspan><tspan x="-64.8" y="71.5">noget udover scenen er </tspan><tspan x="-41.9" y="142.9">som en drug, man må </tspan><tspan x="33.4" y="214.4">have hele tiden!</tspan></text>
  <text/>
</svg>